<svg width="51" height="50" viewBox="0 0 51 50" fill="none" xmlns="http://www.w3.org/2000/svg">
<path d="M17.8831 8.52C21.0506 2.84 22.6331 0 25.0006 0C27.3681 0 28.9506 2.84 32.1181 8.52L32.9381 9.99C33.8381 11.605 34.2881 12.4125 34.9881 12.945C35.6881 13.4775 36.5631 13.675 38.3131 14.07L39.9031 14.43C46.0531 15.8225 49.1256 16.5175 49.8581 18.87C50.5881 21.22 48.4931 23.6725 44.3006 28.575L43.2156 29.8425C42.0256 31.235 41.4281 31.9325 41.1606 32.7925C40.8931 33.655 40.9831 34.585 41.1631 36.4425L41.3281 38.135C41.9606 44.6775 42.2781 47.9475 40.3631 49.4C38.4481 50.855 35.5681 49.5275 29.8131 46.8775L28.3206 46.1925C26.6856 45.4375 25.8681 45.0625 25.0006 45.0625C24.1331 45.0625 23.3156 45.4375 21.6781 46.1925L20.1906 46.8775C14.4331 49.5275 11.5531 50.8525 9.64059 49.4025C7.72309 47.9475 8.04059 44.6775 8.67309 38.135L8.83809 36.445C9.01809 34.585 9.10809 33.655 8.83809 32.795C8.57309 31.9325 7.97559 31.235 6.78559 29.845L5.70059 28.575C1.50809 23.675 -0.586913 21.2225 0.143087 18.87C0.875588 16.5175 3.95059 15.82 10.1006 14.43L11.6906 14.07C13.4381 13.675 14.3106 13.4775 15.0131 12.945C15.7131 12.4125 16.1631 11.605 17.0631 9.99L17.8831 8.52Z" fill="#FFC700"/>
</svg>
