<svg width="80" height="80" viewBox="0 0 80 80" fill="none" xmlns="http://www.w3.org/2000/svg">
<path fill-rule="evenodd" clip-rule="evenodd" d="M54.5455 29.0909C54.5455 32.9486 53.013 36.6483 50.2852 39.3761C47.5574 42.1039 43.8577 43.6364 40 43.6364C36.1423 43.6364 32.4426 42.1039 29.7148 39.3761C26.987 36.6483 25.4545 32.9486 25.4545 29.0909C25.4545 25.2332 26.987 21.5335 29.7148 18.8057C32.4426 16.0779 36.1423 14.5455 40 14.5455C43.8577 14.5455 47.5574 16.0779 50.2852 18.8057C53.013 21.5335 54.5455 25.2332 54.5455 29.0909ZM47.2727 29.0909C47.2727 31.0198 46.5065 32.8696 45.1426 34.2335C43.7787 35.5974 41.9288 36.3636 40 36.3636C38.0712 36.3636 36.2213 35.5974 34.8574 34.2335C33.4935 32.8696 32.7273 31.0198 32.7273 29.0909C32.7273 27.1621 33.4935 25.3122 34.8574 23.9483C36.2213 22.5844 38.0712 21.8182 40 21.8182C41.9288 21.8182 43.7787 22.5844 45.1426 23.9483C46.5065 25.3122 47.2727 27.1621 47.2727 29.0909Z" fill="#F3F3F3"/>
<path fill-rule="evenodd" clip-rule="evenodd" d="M40 0C17.9091 0 0 17.9091 0 40C0 62.0909 17.9091 80 40 80C62.0909 80 80 62.0909 80 40C80 17.9091 62.0909 0 40 0ZM7.27273 40C7.27273 47.6 9.86545 54.5964 14.2109 60.1527C17.2627 56.1451 21.1996 52.8973 25.7143 50.6629C30.229 48.4286 35.1991 47.2684 40.2364 47.2727C45.2085 47.268 50.1161 48.3983 54.5852 50.5774C59.0544 52.7565 62.9671 55.927 66.0254 59.8473C69.1762 55.7149 71.2976 50.8917 72.2142 45.7767C73.1307 40.6617 72.8161 35.4019 71.2963 30.4327C69.7766 25.4634 67.0953 20.9274 63.4745 17.2001C59.8536 13.4728 55.3973 10.6613 50.4741 8.99821C45.551 7.33512 40.3025 6.86826 35.1631 7.63627C30.0237 8.40427 25.1411 10.3851 20.9192 13.4147C16.6973 16.4444 13.2575 20.4359 10.8845 25.0589C8.51144 29.6819 7.27338 34.8035 7.27273 40ZM40 72.7273C32.4871 72.7385 25.201 70.154 19.3745 65.4109C21.7197 62.0536 24.8412 59.3124 28.4734 57.4207C32.1056 55.5289 36.141 54.5425 40.2364 54.5455C44.2806 54.5422 48.2672 55.5039 51.8652 57.3506C55.4631 59.1974 58.5686 61.8758 60.9236 65.1636C55.052 70.0607 47.6458 72.738 40 72.7273Z" fill="#F3F3F3"/>
</svg>
