<svg width="80" height="80" viewBox="0 0 80 80" fill="none" xmlns="http://www.w3.org/2000/svg">
<path d="M9.99967 13.3335C6.33301 13.3335 3.33301 16.3335 3.33301 20.0002V60.0002C3.33301 63.6668 6.33301 66.6668 9.99967 66.6668H44.9997C44.093 64.5474 43.5304 62.2969 43.333 60.0002H9.99967V26.6668L36.6663 43.3335L63.333 26.6668V36.6668C63.8884 36.6455 64.4443 36.6455 64.9997 36.6668C66.684 36.6718 68.362 36.8732 69.9997 37.2668V20.0002C69.9997 16.3335 66.9997 13.3335 63.333 13.3335H9.99967ZM9.99967 20.0002H63.333L36.6663 36.6668L9.99967 20.0002ZM63.333 40.0002L55.833 47.5002L63.333 55.0002V50.0002C65.5431 50.0002 67.6628 50.8781 69.2256 52.4409C70.7884 54.0037 71.6663 56.1234 71.6663 58.3335C71.6663 59.6668 71.3663 60.9335 70.7997 62.0668L74.433 65.7002C75.833 63.6002 76.6663 61.0668 76.6663 58.3335C76.6663 50.9668 70.6997 45.0002 63.333 45.0002V40.0002ZM52.233 50.9668C50.833 53.0668 49.9997 55.6002 49.9997 58.3335C49.9997 65.7002 55.9663 71.6668 63.333 71.6668V76.6668L70.833 69.1668L63.333 61.6668V66.6668C61.1229 66.6668 59.0032 65.7889 57.4404 64.2261C55.8776 62.6632 54.9997 60.5436 54.9997 58.3335C54.9997 57.0002 55.2997 55.7335 55.8663 54.6002L52.233 50.9668Z" fill="#F2F7F2"/>
</svg>
