<svg width="103" height="103" viewBox="0 0 103 103" fill="none" xmlns="http://www.w3.org/2000/svg">
<path d="M103 98.5217C103 99.7094 102.583 100.849 101.84 101.688C101.097 102.528 100.089 103 99.0385 103H3.96154C2.91087 103 1.90324 102.528 1.16031 101.688C0.417375 100.849 0 99.7094 0 98.5217C0 97.334 0.417375 96.195 1.16031 95.3551C1.90324 94.5153 2.91087 94.0435 3.96154 94.0435H7.92308V58.2174C7.92308 57.0297 8.34045 55.8906 9.08339 55.0508C9.82632 54.2109 10.834 53.7391 11.8846 53.7391H23.7692C24.8199 53.7391 25.8275 54.2109 26.5705 55.0508C27.3134 55.8906 27.7308 57.0297 27.7308 58.2174V94.0435H35.6538V31.3478C35.6538 30.1601 36.0712 29.0211 36.8142 28.1812C37.5571 27.3414 38.5647 26.8696 39.6154 26.8696H55.4615C56.5122 26.8696 57.5198 27.3414 58.2628 28.1812C59.0057 29.0211 59.4231 30.1601 59.4231 31.3478V94.0435H67.3462V4.47826C67.3462 3.29055 67.7635 2.15149 68.5065 1.31165C69.2494 0.471816 70.257 0 71.3077 0H91.1154C92.1661 0 93.1737 0.471816 93.9166 1.31165C94.6596 2.15149 95.0769 3.29055 95.0769 4.47826V94.0435H99.0385C100.089 94.0435 101.097 94.5153 101.84 95.3551C102.583 96.195 103 97.334 103 98.5217Z" fill="#F3F3F3"/>
</svg>
