<svg width="80" height="80" viewBox="0 0 80 80" fill="none" xmlns="http://www.w3.org/2000/svg">
<path d="M6.15385 5.33333C4.52174 5.33333 2.95649 5.89524 1.80242 6.89543C0.64835 7.89562 0 9.25218 0 10.6667V16C0 17.4145 0.64835 18.771 1.80242 19.7712C2.95649 20.7714 4.52174 21.3333 6.15385 21.3333H9.23077V69.3333C9.23077 72.1623 10.5275 74.8754 12.8356 76.8758C15.1437 78.8762 18.2743 80 21.5385 80H58.4615C61.7257 80 64.8562 78.8762 67.1644 76.8758C69.4725 74.8754 70.7692 72.1623 70.7692 69.3333V21.3333H73.8462C75.4783 21.3333 77.0435 20.7714 78.1976 19.7712C79.3517 18.771 80 17.4145 80 16V10.6667C80 9.25218 79.3517 7.89562 78.1976 6.89543C77.0435 5.89524 75.4783 5.33333 73.8462 5.33333H52.3077C52.3077 3.91885 51.6593 2.56229 50.5053 1.5621C49.3512 0.561903 47.7859 0 46.1538 0L33.8462 0C32.2141 0 30.6488 0.561903 29.4947 1.5621C28.3407 2.56229 27.6923 3.91885 27.6923 5.33333H6.15385ZM24.6154 26.6667C25.4314 26.6667 26.2141 26.9476 26.7911 27.4477C27.3681 27.9478 27.6923 28.6261 27.6923 29.3333V66.6667C27.6923 67.3739 27.3681 68.0522 26.7911 68.5523C26.2141 69.0524 25.4314 69.3333 24.6154 69.3333C23.7993 69.3333 23.0167 69.0524 22.4397 68.5523C21.8626 68.0522 21.5385 67.3739 21.5385 66.6667V29.3333C21.5385 28.6261 21.8626 27.9478 22.4397 27.4477C23.0167 26.9476 23.7993 26.6667 24.6154 26.6667ZM40 26.6667C40.8161 26.6667 41.5987 26.9476 42.1757 27.4477C42.7528 27.9478 43.0769 28.6261 43.0769 29.3333V66.6667C43.0769 67.3739 42.7528 68.0522 42.1757 68.5523C41.5987 69.0524 40.8161 69.3333 40 69.3333C39.1839 69.3333 38.4013 69.0524 37.8243 68.5523C37.2473 68.0522 36.9231 67.3739 36.9231 66.6667V29.3333C36.9231 28.6261 37.2473 27.9478 37.8243 27.4477C38.4013 26.9476 39.1839 26.6667 40 26.6667ZM58.4615 29.3333V66.6667C58.4615 67.3739 58.1374 68.0522 57.5603 68.5523C56.9833 69.0524 56.2007 69.3333 55.3846 69.3333C54.5686 69.3333 53.7859 69.0524 53.2089 68.5523C52.6319 68.0522 52.3077 67.3739 52.3077 66.6667V29.3333C52.3077 28.6261 52.6319 27.9478 53.2089 27.4477C53.7859 26.9476 54.5686 26.6667 55.3846 26.6667C56.2007 26.6667 56.9833 26.9476 57.5603 27.4477C58.1374 27.9478 58.4615 28.6261 58.4615 29.3333Z" fill="#F3F3F3"/>
</svg>
