<svg width="103" height="103" viewBox="0 0 103 103" fill="none" xmlns="http://www.w3.org/2000/svg">
<path d="M0 51.5C0 37.8414 5.42588 24.7421 15.084 15.084C24.7421 5.42588 37.8414 0 51.5 0C65.1587 0 78.2579 5.42588 87.916 15.084C97.5741 24.7421 103 37.8414 103 51.5C103 65.1587 97.5741 78.2579 87.916 87.916C78.2579 97.5741 65.1587 103 51.5 103C37.8414 103 24.7421 97.5741 15.084 87.916C5.42588 78.2579 0 65.1587 0 51.5ZM51.5 9.65625C40.4023 9.65625 29.7592 14.0648 21.912 21.912C14.0648 29.7592 9.65625 40.4023 9.65625 51.5C9.65625 62.5977 14.0648 73.2408 21.912 81.088C29.7592 88.9352 40.4023 93.3438 51.5 93.3438C62.5977 93.3438 73.2408 88.9352 81.088 81.088C88.9352 73.2408 93.3438 62.5977 93.3438 51.5C93.3438 40.4023 88.9352 29.7592 81.088 21.912C73.2408 14.0648 62.5977 9.65625 51.5 9.65625ZM41.8438 49.8906C41.8438 48.6101 42.3524 47.3821 43.2579 46.4766C44.1633 45.5712 45.3914 45.0625 46.6719 45.0625H53.1094C54.3899 45.0625 55.6179 45.5712 56.5234 46.4766C57.4288 47.3821 57.9375 48.6101 57.9375 49.8906V67.5938H59.5469C60.8274 67.5938 62.0554 68.1024 62.9609 69.0079C63.8663 69.9133 64.375 71.1414 64.375 72.4219C64.375 73.7024 63.8663 74.9304 62.9609 75.8359C62.0554 76.7413 60.8274 77.25 59.5469 77.25H46.6719C45.3914 77.25 44.1633 76.7413 43.2579 75.8359C42.3524 74.9304 41.8438 73.7024 41.8438 72.4219C41.8438 71.1414 42.3524 69.9133 43.2579 69.0079C44.1633 68.1024 45.3914 67.5938 46.6719 67.5938H48.2812V54.7188H46.6719C45.3914 54.7188 44.1633 54.2101 43.2579 53.3046C42.3524 52.3992 41.8438 51.1711 41.8438 49.8906ZM51.5 38.625C49.7927 38.625 48.1553 37.9468 46.948 36.7395C45.7407 35.5322 45.0625 33.8948 45.0625 32.1875C45.0625 30.4802 45.7407 28.8428 46.948 27.6355C48.1553 26.4282 49.7927 25.75 51.5 25.75C53.2073 25.75 54.8447 26.4282 56.052 27.6355C57.2593 28.8428 57.9375 30.4802 57.9375 32.1875C57.9375 33.8948 57.2593 35.5322 56.052 36.7395C54.8447 37.9468 53.2073 38.625 51.5 38.625Z" fill="#F3F3F3"/>
</svg>
