<svg width="67" height="73" viewBox="0 0 67 73" fill="none" xmlns="http://www.w3.org/2000/svg">
<path d="M61.1692 40.1495L2.91282 40.1495C2.14029 40.1495 1.3994 39.765 0.853134 39.0806C0.306877 38.3962 0 37.4679 0 36.5C0 35.5321 0.306877 34.6038 0.853134 33.9194C1.3994 33.235 2.14029 32.8505 2.91282 32.8505L61.1692 32.8505C61.9417 32.8505 62.6826 33.235 63.2288 33.9194C63.7751 34.6038 64.082 35.5321 64.082 36.5C64.082 37.4679 63.7751 38.3962 63.2288 39.0806C62.6826 39.765 61.9417 40.1495 61.1692 40.1495Z" fill="#F3F3F3"/>
<path d="M59.9633 36.5L35.8043 6.23802C35.2574 5.55273 34.9501 4.62329 34.9501 3.65415C34.9501 2.68501 35.2574 1.75556 35.8043 1.07027C36.3513 0.384987 37.0931 0 37.8666 0C38.6401 0 39.382 0.384987 39.9289 1.07027L66.1443 33.9161C66.4155 34.2551 66.6307 34.6579 66.7776 35.1013C66.9244 35.5446 67 36.02 67 36.5C67 36.98 66.9244 37.4554 66.7776 37.8987C66.6307 38.3421 66.4155 38.7449 66.1443 39.0839L39.9289 71.9297C39.382 72.615 38.6401 73 37.8666 73C37.0931 73 36.3513 72.615 35.8043 71.9297C35.2574 71.2444 34.9501 70.315 34.9501 69.3459C34.9501 68.3767 35.2574 67.4473 35.8043 66.762L59.9633 36.5Z" fill="#F3F3F3"/>
</svg>
