<svg width="103" height="103" viewBox="0 0 103 103" fill="none" xmlns="http://www.w3.org/2000/svg">
<path d="M51.5 62.2478C57.5948 62.2478 62.5357 57.4359 62.5357 51.5C62.5357 45.5641 57.5948 40.7522 51.5 40.7522C45.4051 40.7522 40.4643 45.5641 40.4643 51.5C40.4643 57.4359 45.4051 62.2478 51.5 62.2478Z" fill="#F3F3F3"/>
<path d="M100.79 61.3522L100.682 61.2671L93.4264 55.7252C92.9669 55.3712 92.6002 54.9161 92.3564 54.3972C92.1126 53.8783 91.9986 53.3106 92.0239 52.7405V50.152C92.0009 49.5856 92.1162 49.0219 92.3604 48.5073C92.6046 47.9927 92.9708 47.5419 93.4287 47.1919L100.682 41.6478L100.79 41.5627C101.909 40.6551 102.66 39.3896 102.908 37.9924C103.157 36.5952 102.887 35.1574 102.147 33.9363L92.3274 17.3891C92.3161 17.3735 92.3061 17.357 92.2975 17.3398C91.5535 16.1355 90.3999 15.2231 89.037 14.7609C87.6741 14.2987 86.1881 14.3159 84.8369 14.8096L84.7565 14.8387L76.2268 18.1817C75.6884 18.3937 75.1061 18.4781 74.5277 18.4279C73.9492 18.3777 73.3914 18.1943 72.9 17.8929C72.1459 17.4301 71.3795 16.9928 70.6009 16.5808C70.0961 16.3141 69.6626 15.9357 69.3356 15.476C69.0085 15.0163 68.7969 14.4881 68.7179 13.9341L67.4327 5.06939L67.4052 4.90817C67.1254 3.53513 66.3688 2.29773 65.2627 1.40392C64.1565 0.510108 62.7682 0.0143642 61.3309 0H41.669C40.2115 0.00454213 38.8024 0.509887 37.69 1.42701C36.5776 2.34413 35.8331 3.61418 35.5879 5.01341L35.5672 5.1388L34.2866 14.0214C34.208 14.5738 33.9982 15.1007 33.6737 15.5602C33.3492 16.0197 32.919 16.3991 32.4174 16.6681C31.6365 17.0777 30.8698 17.5123 30.1183 17.9713C29.6278 18.2708 29.0714 18.4528 28.4947 18.5022C27.9179 18.5517 27.3374 18.4671 26.8007 18.2556L18.2642 14.8969L18.1837 14.8656C16.8306 14.3713 15.3424 14.3547 13.978 14.8187C12.6136 15.2826 11.4594 16.1977 10.7162 17.4048L10.6863 17.454L0.853078 34.0124C0.111917 35.2348 -0.158595 36.6741 0.089917 38.073C0.338429 39.4718 1.08976 40.739 2.20955 41.6478L2.31761 41.7329L9.57357 47.2748C10.0331 47.6288 10.3998 48.0839 10.6436 48.6028C10.8874 49.1217 11.0013 49.6894 10.976 50.2595V52.848C10.999 53.4144 10.8837 53.9781 10.6395 54.4927C10.3953 55.0073 10.0292 55.4581 9.57127 55.8081L2.31761 61.3522L2.20955 61.4373C1.09087 62.3449 0.340148 63.6104 0.0916369 65.0076C-0.156874 66.4048 0.113027 67.8426 0.853078 69.0637L10.6725 85.6109C10.6838 85.6265 10.6938 85.643 10.7024 85.6602C11.4465 86.8645 12.6001 87.7769 13.9629 88.2391C15.3258 88.7013 16.8118 88.6841 18.163 88.1904L18.2435 88.1613L26.7662 84.8183C27.3046 84.6063 27.887 84.5219 28.4654 84.5721C29.0438 84.6223 29.6017 84.8057 30.093 85.1071C30.8472 85.5714 31.6135 86.0087 32.3921 86.4192C32.897 86.6859 33.3304 87.0643 33.6575 87.524C33.9846 87.9837 34.1961 88.5119 34.2751 89.0659L35.5534 97.9306L35.581 98.0918C35.8613 99.4671 36.6198 100.706 37.7288 101.6C38.8378 102.494 40.2294 102.989 41.669 103H61.3309C62.7884 102.995 64.1975 102.49 65.3099 101.573C66.4224 100.656 67.1668 99.3858 67.4121 97.9866L67.4327 97.8612L68.7133 88.9786C68.7931 88.4251 69.0048 87.8975 69.3313 87.438C69.6579 86.9784 70.0903 86.5996 70.594 86.3319C71.3803 85.9199 72.1482 85.4833 72.8931 85.0287C73.3836 84.7292 73.9401 84.5472 74.5168 84.4978C75.0935 84.4483 75.674 84.5329 76.2107 84.7444L84.7473 88.0919L84.8277 88.1232C86.1808 88.6184 87.6693 88.6354 89.0339 88.1714C90.3985 87.7074 91.5527 86.7918 92.2952 85.584C92.3043 85.5671 92.3143 85.5507 92.3251 85.5348L102.145 68.9898C102.887 67.7676 103.159 66.3278 102.91 64.9283C102.662 63.5289 101.911 62.2612 100.79 61.3522ZM69.8721 52.3419C69.7047 55.8094 68.5064 59.1548 66.4229 61.9713C64.3395 64.7878 61.4607 66.954 58.1365 68.2066C54.8124 69.4593 51.1862 69.7442 47.6989 69.0269C44.2115 68.3096 41.0133 66.6209 38.4931 64.1662C35.973 61.7114 34.2394 58.5964 33.5033 55.2C32.7672 51.8035 33.0602 48.2719 34.3468 45.0346C35.6333 41.7974 37.8579 38.9939 40.7501 36.9651C43.6423 34.9364 47.0775 33.7698 50.6378 33.6071C53.1939 33.4975 55.7454 33.9071 58.1301 34.8099C60.5148 35.7126 62.6805 37.0888 64.4895 38.8509C66.2986 40.6129 67.7114 42.7223 68.638 45.0449C69.5647 47.3676 69.9849 49.8526 69.8721 52.3419Z" fill="#F3F3F3"/>
</svg>
