<svg width="70" height="70" viewBox="0 0 70 70" fill="none" xmlns="http://www.w3.org/2000/svg">
<path d="M35 53.3333C32.6794 53.3333 30.4538 52.631 28.8128 51.3807C27.1719 50.1305 26.25 48.4348 26.25 46.6667C26.25 42.9667 30.1437 40 35 40C37.3206 40 39.5462 40.7024 41.1872 41.9526C42.8281 43.2029 43.75 44.8986 43.75 46.6667C43.75 48.4348 42.8281 50.1305 41.1872 51.3807C39.5462 52.631 37.3206 53.3333 35 53.3333ZM61.25 63.3333V30H8.75V63.3333H61.25ZM61.25 23.3333C63.5706 23.3333 65.7962 24.0357 67.4372 25.286C69.0781 26.5362 70 28.2319 70 30V63.3333C70 65.1014 69.0781 66.7971 67.4372 68.0474C65.7962 69.2976 63.5706 70 61.25 70H8.75C6.42936 70 4.20376 69.2976 2.56282 68.0474C0.921872 66.7971 0 65.1014 0 63.3333V30C0 26.3 3.89375 23.3333 8.75 23.3333H13.125V16.6667C13.125 12.2464 15.4297 8.00716 19.532 4.88155C23.6344 1.75595 29.1984 0 35 0C37.8727 0 40.7172 0.431096 43.3712 1.26867C46.0252 2.10625 48.4367 3.33391 50.468 4.88155C52.4992 6.4292 54.1105 8.26652 55.2099 10.2886C56.3092 12.3107 56.875 14.478 56.875 16.6667V23.3333H61.25ZM35 6.66667C31.519 6.66667 28.1806 7.72024 25.7192 9.5956C23.2578 11.471 21.875 14.0145 21.875 16.6667V23.3333H48.125V16.6667C48.125 14.0145 46.7422 11.471 44.2808 9.5956C41.8194 7.72024 38.481 6.66667 35 6.66667Z" fill="#222222"/>
</svg>
