<svg width="92" height="80" viewBox="0 0 92 80" fill="none" xmlns="http://www.w3.org/2000/svg">
<path d="M8.33333 0C3.75 0 0 3.75 0 8.33333V58.3333C0 62.9167 3.75 66.6667 8.33333 66.6667H52.0833C50.95 64.0174 50.2467 61.2043 50 58.3333H8.33333V16.6667L41.6667 37.5L75 16.6667V29.1667C75.6942 29.1399 76.3891 29.1399 77.0833 29.1667C79.1887 29.1729 81.2862 29.4246 83.3333 29.9167V8.33333C83.3333 3.75 79.5833 0 75 0H8.33333ZM8.33333 8.33333H75L41.6667 29.1667L8.33333 8.33333ZM75 33.3333L65.625 42.7083L75 52.0833V45.8333C77.7627 45.8333 80.4122 46.9308 82.3657 48.8843C84.3192 50.8378 85.4167 53.4873 85.4167 56.25C85.4167 57.9167 85.0417 59.5 84.3333 60.9167L88.875 65.4583C90.625 62.8333 91.6667 59.6667 91.6667 56.25C91.6667 47.0417 84.2083 39.5833 75 39.5833V33.3333ZM61.125 47.0417C59.375 49.6667 58.3333 52.8333 58.3333 56.25C58.3333 65.4583 65.7917 72.9167 75 72.9167V79.1667L84.375 69.7917L75 60.4167V66.6667C72.2373 66.6667 69.5878 65.5692 67.6343 63.6157C65.6808 61.6622 64.5833 59.0127 64.5833 56.25C64.5833 54.5833 64.9583 53 65.6667 51.5833L61.125 47.0417Z" fill="#222222"/>
</svg>
