<svg width="92" height="50" viewBox="0 0 92 50" fill="none" xmlns="http://www.w3.org/2000/svg">
<path d="M4.16667 41.6667H87.5V50H4.16667V41.6667ZM8.95833 24.7917L12.5 18.625L16.0417 24.7917L21.4583 21.6667L17.9167 15.5H25V9.25H17.9167L21.4583 3.125L16.0417 0L12.5 6.125L8.95833 0L3.54167 3.125L7.08333 9.25H0V15.5H7.08333L3.54167 21.6667L8.95833 24.7917ZM36.875 21.6667L42.2917 24.7917L45.8333 18.625L49.375 24.7917L54.7917 21.6667L51.25 15.5H58.3333V9.25H51.25L54.7917 3.125L49.375 0L45.8333 6.125L42.2917 0L36.875 3.125L40.4167 9.25H33.3333V15.5H40.4167L36.875 21.6667ZM91.6667 9.25H84.5833L88.125 3.125L82.7083 0L79.1667 6.125L75.625 0L70.2083 3.125L73.75 9.25H66.6667V15.5H73.75L70.2083 21.6667L75.625 24.7917L79.1667 18.625L82.7083 24.7917L88.125 21.6667L84.5833 15.5H91.6667V9.25Z" fill="#222222"/>
</svg>
