<svg width="74" height="64" viewBox="0 0 74 64" fill="none" xmlns="http://www.w3.org/2000/svg">
<path d="M7.00016 0.333496C3.3335 0.333496 0.333496 3.3335 0.333496 7.00016V47.0002C0.333496 50.6668 3.3335 53.6668 7.00016 53.6668H42.0002C41.0935 51.5474 40.5309 49.2969 40.3335 47.0002H7.00016V13.6668L33.6668 30.3335L60.3335 13.6668V23.6668C60.8888 23.6455 61.4448 23.6455 62.0002 23.6668C63.6845 23.6718 65.3625 23.8732 67.0002 24.2668V7.00016C67.0002 3.3335 64.0002 0.333496 60.3335 0.333496H7.00016ZM7.00016 7.00016H60.3335L33.6668 23.6668L7.00016 7.00016ZM60.3335 27.0002L52.8335 34.5002L60.3335 42.0002V37.0002C62.5436 37.0002 64.6632 37.8781 66.226 39.4409C67.7888 41.0037 68.6668 43.1234 68.6668 45.3335C68.6668 46.6668 68.3668 47.9335 67.8002 49.0668L71.4335 52.7002C72.8335 50.6002 73.6668 48.0668 73.6668 45.3335C73.6668 37.9668 67.7002 32.0002 60.3335 32.0002V27.0002ZM49.2335 37.9668C47.8335 40.0668 47.0002 42.6002 47.0002 45.3335C47.0002 52.7002 52.9668 58.6668 60.3335 58.6668V63.6668L67.8335 56.1668L60.3335 48.6668V53.6668C58.1234 53.6668 56.0037 52.7889 54.4409 51.2261C52.8781 49.6632 52.0002 47.5436 52.0002 45.3335C52.0002 44.0002 52.3002 42.7335 52.8668 41.6002L49.2335 37.9668Z" fill="#222222"/>
</svg>
