<svg width="414" height="272" viewBox="0 0 414 272" fill="none" xmlns="http://www.w3.org/2000/svg">
<path d="M12.4991 19.5L17.4991 20L18.4991 18.5L25.4991 14.5L28.2647 0.5H214.499L395.999 1L393.999 9.5L396.999 10H400.499L404.999 19H413.999V244.5L410.999 242.5H406.999L404.499 245V253L396.999 251.5L393.999 256L395.499 262L388.874 262.5H27.7959L26.9991 251.5L20.9991 250L14.9991 240L13.9991 242L9.49905 244L8.99905 229.75V18.9219L12.4991 19.5Z" fill="#363636"/>
<path d="M207.764 262.419L180.715 262.389C180.308 262.389 180.105 262.593 180.105 263V262.389H171.505L171.505 253.347H395.25C395.749 253.347 395.999 253.096 395.999 252.596V245.466C395.999 245.166 396.119 244.878 396.33 244.666C396.542 244.454 396.83 244.334 397.129 244.334H403.629C403.995 244.334 404.346 244.189 404.605 243.93C404.864 243.67 405.009 243.319 405.009 242.952L404.989 19.7758C404.989 19.5766 404.911 19.3856 404.773 19.2447C404.634 19.1039 404.446 19.0248 404.249 19.0248H396.499C396.367 19.0248 396.24 18.972 396.146 18.8781C396.052 18.7842 395.999 18.6569 395.999 18.5241V11.0138C395.999 10.3462 395.666 10.0124 395 10.0124H27.6686C27.4962 10.0124 27.3309 10.081 27.209 10.203C27.0871 10.3251 27.0186 10.4906 27.0186 10.6633L27.0086 18.5241C27.0086 18.6569 26.9559 18.7842 26.8622 18.8781C26.7684 18.972 26.6412 19.0248 26.5086 19.0248H18.7588C18.5599 19.0248 18.3691 19.1039 18.2285 19.2447C18.0878 19.3856 18.0088 19.5766 18.0088 19.7758V243.583C18.0088 244.084 18.2588 244.334 18.7588 244.334H25.7586C26.0901 244.334 26.4081 244.466 26.6425 244.701C26.8769 244.936 27.0086 245.254 27.0086 245.586V252.345C27.0086 252.611 27.1139 252.866 27.3015 253.053C27.489 253.241 27.7434 253.347 28.0086 253.347H143.286C143.712 253.347 142.865 252.706 143.505 253.347H171.505L171.505 262.389C171.505 262.389 134.496 262.546 134.496 262.359L134.966 262.83C134.966 262.516 134.809 262.359 134.496 262.359H28.0086C27.7434 262.359 27.489 262.254 27.3015 262.066C27.1139 261.878 27.0086 261.623 27.0086 261.358V253.938C27.0086 253.497 26.7886 253.277 26.3486 253.277L18.9688 253.267C18.7142 253.267 18.47 253.165 18.29 252.985C18.11 252.805 18.0088 252.56 18.0088 252.305V245.276C18.0088 245.145 17.9829 245.015 17.9325 244.894C17.8821 244.773 17.8083 244.663 17.7153 244.571C17.6223 244.479 17.512 244.406 17.3908 244.357C17.2695 244.308 17.1397 244.283 17.0088 244.284L9.61903 244.314C9.21237 244.314 9.00904 244.111 9.00904 243.703L8.99904 27.5264L9.03904 19.5054C9.03904 19.3779 9.08961 19.2557 9.17963 19.1655C9.26964 19.0754 9.39173 19.0248 9.51903 19.0248H16.7488C17.0786 19.0248 17.3951 18.8943 17.6292 18.6617C17.8633 18.4291 17.9962 18.1133 17.9988 17.7831L18.0388 10.7133C18.0388 10.5274 18.1126 10.3491 18.2438 10.2177C18.3751 10.0862 18.5532 10.0124 18.7388 10.0124H25.3086C25.5441 10.0124 25.7772 9.96564 25.9944 9.87481C26.2117 9.78399 26.4088 9.6509 26.5744 9.48326C26.7399 9.31561 26.8706 9.11675 26.9589 8.89817C27.0472 8.6796 27.0912 8.44566 27.0886 8.20991L27.0086 1.731C27.0073 1.63547 27.0247 1.54063 27.0597 1.45198C27.0948 1.36334 27.1469 1.28267 27.213 1.21465C27.279 1.14663 27.3578 1.09263 27.4446 1.05578C27.5313 1.01893 27.6245 0.999972 27.7186 1H395.5C395.632 1 395.759 1.05275 395.853 1.14665C395.947 1.24054 395.999 1.3679 395.999 1.50069V9.01101C395.999 9.67859 396.333 10.0124 396.999 10.0124H404.499C404.632 10.0124 404.759 10.0651 404.853 10.159C404.947 10.2529 404.999 10.3803 404.999 10.5131V18.5241C404.999 18.8579 405.166 19.0248 405.499 19.0248H412.749C413.081 19.0248 413.399 19.1566 413.633 19.3914C413.867 19.6261 413.999 19.9445 413.999 20.2765V243.373C413.999 243.51 413.972 243.645 413.919 243.771C413.866 243.897 413.788 244.011 413.69 244.106C413.592 244.201 413.476 244.276 413.349 244.325C413.221 244.375 413.086 244.398 412.949 244.394L406.599 244.184C406.392 244.176 406.185 244.21 405.992 244.285C405.798 244.359 405.621 244.472 405.471 244.617C405.322 244.762 405.203 244.936 405.122 245.128C405.041 245.32 404.999 245.527 404.999 245.736V252.095C404.999 252.427 404.868 252.745 404.633 252.98C404.399 253.215 404.081 253.347 403.749 253.347H396.749C396.249 253.347 395.999 253.597 395.999 254.098V261.658C395.999 262.059 395.799 262.259 395.4 262.259L207.764 262.419Z" fill="black"/>
<path d="M8.78467 30.0104L8.79467 243.645C8.79467 244.047 8.99811 244.248 9.405 244.248L16.7989 244.219C16.9298 244.217 17.0597 244.242 17.1811 244.29C17.3024 244.339 17.4128 244.411 17.5058 244.502C17.5989 244.593 17.6727 244.702 17.7231 244.821C17.7735 244.941 17.7995 245.069 17.7995 245.198V252.145C17.7995 252.397 17.9007 252.639 18.0808 252.817C18.2609 252.995 18.5052 253.095 18.76 253.095L26.1439 253.105C26.5841 253.105 26.8042 253.323 26.8042 253.758V261.091C26.8042 261.354 26.9097 261.606 27.0973 261.791C27.2849 261.977 27.5394 262.081 27.8048 262.081H134.351C236.727 262.081 294.124 262.081 396.5 262.081L397 262.081V269.998C397 269.998 149.818 271.7 148.097 270.691L143.865 270.987H132.359L130.859 270.691H128.558C128.558 270.691 122.855 270.71 120.474 270.77C110.899 270.997 91.8379 270.77 91.8379 270.77L80.3317 270.977H79.3312L78.3307 270.987L76.1944 270.977H72.1283C55.3594 270.984 37.7501 270.977 19.3003 270.958C18.2997 270.958 17.7995 270.463 17.7995 269.473V262.605C17.7995 262.289 17.6427 262.127 17.3292 262.121L9.34496 261.942C8.9781 261.936 8.79467 261.751 8.79467 261.388V253.6C8.79467 253.224 8.60791 253.033 8.23438 253.026L0.630335 252.878C0.472861 252.875 0.322725 252.811 0.212299 252.7C0.101872 252.589 0.0399993 252.44 0.0400212 252.284V195L0 31.0594C0 30.915 0.0579766 30.7766 0.161176 30.6745C0.264376 30.5724 0.404346 30.5151 0.550293 30.5151H5.07269C5.43956 30.5151 5.78307 30.6009 6.10324 30.7724C7.25052 31.3793 8.14433 31.1254 8.78467 30.0104Z" fill="#1F1E1E" fill-opacity="0.196"/>
</svg>
