<svg width="103" height="103" viewBox="0 0 103 103" fill="none" xmlns="http://www.w3.org/2000/svg">
<path d="M91.9996 33.2948C92.7244 30.7515 92.8815 28.08 92.4598 25.4694C92.0381 22.8587 91.048 20.3725 89.5594 18.1868C88.0707 16.001 86.12 14.1691 83.8452 12.8204C81.5704 11.4718 79.0271 10.6395 76.3951 10.3824C75.339 7.35222 73.367 4.72529 70.7522 2.86519C68.1374 1.00509 65.0089 0.003832 61.8 0C57.9869 0.0129153 54.3151 1.44491 51.5 4.017C48.6849 1.44491 45.0131 0.0129153 41.2 0C34.4999 0 28.7885 4.27965 26.6513 10.3772C24.0146 10.6279 21.4655 11.4558 19.1846 12.802C16.9038 14.1483 14.9471 15.9799 13.4534 18.1671C11.9598 20.3542 10.9657 22.8433 10.5418 25.4577C10.1179 28.072 10.2744 30.7477 11.0004 33.2948C7.69428 35.0537 4.92598 37.6749 2.98924 40.8801C1.05249 44.0854 0.0195493 47.7551 0 51.5C0 57.0363 2.2042 62.2429 6.0358 66.0848C5.44953 68.0361 5.15112 70.0625 5.15 72.1C5.15 82.1786 12.4218 90.5885 22.1759 92.3601C23.6078 95.5249 25.9201 98.2108 28.8368 100.097C31.7535 101.984 35.1514 102.992 38.625 103C43.6669 103 48.2246 100.904 51.5 97.5462C53.1718 99.2707 55.1728 100.642 57.3844 101.579C59.596 102.516 61.9732 102.999 64.375 103C67.8425 102.994 71.2349 101.99 74.1478 100.109C77.0607 98.2279 79.3711 95.5488 80.8035 92.391C83.677 91.8844 86.4103 90.7741 88.823 89.1333C91.2358 87.4926 93.273 85.3587 94.8003 82.8726C96.3276 80.3865 97.3102 77.6047 97.6832 74.7108C98.0562 71.817 97.8111 68.8769 96.9642 66.0848C98.879 64.1694 100.398 61.8955 101.433 59.3929C102.469 56.8904 103.001 54.2084 103 51.5C102.98 47.7551 101.948 44.0854 100.011 40.8801C98.074 37.6749 95.3057 35.0537 91.9996 33.2948ZM38.625 92.7C34.9634 92.7 31.7755 90.1044 31.0545 86.5303L29.9627 82.4H25.75C20.0695 82.4 15.45 77.7804 15.45 72.1C15.45 70.2872 15.8877 68.5877 16.7529 67.0479L19.1014 62.8455L15.0638 60.219C13.6052 59.2786 12.4052 57.9882 11.5731 56.4653C10.741 54.9424 10.3034 53.2354 10.3 51.5C10.3 46.4685 14.0235 42.1064 18.9623 41.3442L27.6812 40.0052L22.2274 33.0733C21.2562 31.8212 20.6929 30.301 20.6138 28.7183C20.5347 27.1357 20.9436 25.5669 21.7852 24.2242C22.6268 22.8815 23.8604 21.8296 25.3193 21.2109C26.7781 20.5922 28.3918 20.4365 29.9421 20.7648L36.05 21.666V15.45C36.05 14.0841 36.5926 12.7742 37.5584 11.8084C38.5242 10.8426 39.8341 10.3 41.2 10.3C42.5659 10.3 43.8758 10.8426 44.8416 11.8084C45.8074 12.7742 46.35 14.0841 46.35 15.45V84.975C46.35 89.2341 42.8841 92.7 38.625 92.7ZM87.9363 60.2138L83.8987 62.8403L86.247 67.0427C87.1123 68.5877 87.55 70.2872 87.55 72.1C87.55 77.7804 82.9305 82.4 76.9925 82.4H72.7798L71.9455 86.5303C71.5855 88.2724 70.636 89.8371 69.257 90.9609C67.8781 92.0847 66.1539 92.6989 64.375 92.7C60.116 92.7 56.65 89.2341 56.65 84.975V15.45C56.65 12.6072 58.9572 10.3 61.8 10.3C64.6428 10.3 66.95 12.6072 66.95 15.7075V21.9235L73.0579 20.7648C74.6082 20.4365 76.2219 20.5922 77.6807 21.2109C79.1396 21.8296 80.3732 22.8815 81.2148 24.2242C82.0564 25.5669 82.4653 27.1357 82.3862 28.7183C82.3071 30.301 81.7438 31.8212 80.7726 33.0733L75.3187 40.0103L84.0377 41.3494C86.4504 41.74 88.6459 42.9751 90.2325 44.8343C91.8191 46.6935 92.6936 49.0559 92.7 51.5C92.7 55.0175 90.9181 58.2723 87.9363 60.2138Z" fill="#222222"/>
</svg>
