<svg width="251" height="250" viewBox="0 0 251 250" fill="none" xmlns="http://www.w3.org/2000/svg">
<path d="M64.4 12.6502C74.8 4.5502 88.4 0.0751953 101.913 0.0751953C110 0.0751953 116.538 2.8502 121.5 7.2627C122.838 8.4502 124.025 9.73769 125.088 11.0627C126.15 9.73769 127.338 8.4502 128.675 7.2627C133.638 2.8502 140.175 0.0751953 148.263 0.0751953C161.775 0.0751953 175.388 4.5502 185.763 12.6502C193.863 18.9377 200.2 27.6252 202.688 38.1127C207.938 38.9877 212.6 41.6627 216.375 45.2002C222.375 50.8377 226.663 58.9877 229.35 67.3752C232.088 75.8877 233.45 85.4502 233.038 94.6377C232.825 99.3377 232.138 104.138 230.825 108.725L231.638 109.1C236.263 111.275 240.013 114.688 242.825 119.225C248.138 127.788 250.013 140.113 250.013 155.825C250.013 173.888 243.1 186.15 234.225 193.763C229.602 197.727 224.192 200.667 218.35 202.388C216.23 212.156 211.875 221.299 205.625 229.1C196.588 240.4 182.538 249.95 163.663 249.95C148.538 249.95 136.625 241.575 128.975 233.575C127.618 232.145 126.325 230.656 125.1 229.113C123.87 230.652 122.573 232.137 121.213 233.563C113.563 241.588 101.65 249.95 86.525 249.95C67.6376 249.95 53.5876 240.4 44.5625 229.1C38.3036 221.302 33.9392 212.158 31.8125 202.388C25.9751 200.666 20.5689 197.726 15.9501 193.763C7.07505 186.138 0.175049 173.888 0.175049 155.825C0.175049 140.113 2.05005 127.788 7.35005 119.225C10.162 114.563 14.3563 110.893 19.35 108.725C18.0658 104.132 17.3232 99.4037 17.1376 94.6377C16.725 85.4502 18.0875 75.8877 20.825 67.3752C23.5125 59.0002 27.7875 50.8377 33.8 45.2002C37.5604 41.5349 42.3241 39.0683 47.4875 38.1127C49.9875 27.6127 56.3125 18.9377 64.4 12.6502ZM75.9251 27.4377C69.1001 32.7502 65.1001 39.8252 65.1001 47.9752C65.0989 49.4599 64.7452 50.9231 64.068 52.2443C63.3907 53.5656 62.4094 54.7071 61.2047 55.5749C60.0001 56.4427 58.6065 57.012 57.1388 57.2359C55.6711 57.4598 54.1712 57.3319 52.7626 56.8627C51.0501 56.2877 49.2375 56.4252 46.6376 58.8752C43.7375 61.5877 40.8 66.5002 38.675 73.1002C36.5493 79.7858 35.6019 86.7901 35.875 93.8002C36.1875 100.75 37.8376 106.525 40.4375 110.425C40.8677 111.071 41.2162 111.768 41.475 112.5H55C63.9996 112.498 72.6664 115.903 79.2588 122.029C85.8513 128.155 89.8807 136.55 90.5376 145.525C95.9223 147.674 100.393 151.627 103.184 156.709C105.976 161.79 106.914 167.684 105.839 173.381C104.764 179.078 101.742 184.224 97.2909 187.939C92.8398 191.654 87.2359 193.706 81.4384 193.744C75.6409 193.783 70.0102 191.805 65.5101 188.15C61.01 184.494 57.9203 179.389 56.7697 173.706C55.6191 168.024 56.4793 162.119 59.2029 157C61.9265 151.882 66.3443 147.87 71.7001 145.65C71.1063 141.646 69.0931 137.989 66.0274 135.345C62.9618 132.702 59.048 131.248 55 131.25H22.1876C20.3126 135.6 18.925 143.113 18.925 155.825C18.925 168.588 23.5625 175.588 28.1625 179.538C33.2 183.85 38.7376 184.975 40.3376 184.975C42.824 184.975 45.2085 185.963 46.9667 187.721C48.7248 189.479 49.7126 191.864 49.7126 194.35C49.7126 199.6 52.6125 209.138 59.2126 217.388C65.5626 225.35 74.6125 231.2 86.525 231.2C94.4875 231.2 101.813 226.725 107.65 220.625C110.475 217.65 112.675 214.563 114.125 212.063C114.674 211.128 115.154 210.154 115.563 209.15L115.638 208.975V90.6252H104.438C102.262 96.0035 98.2834 100.458 93.1839 103.224C88.0844 105.991 82.1814 106.898 76.4865 105.79C70.7916 104.682 65.6595 101.627 61.9696 97.1501C58.2798 92.673 56.2619 87.0519 56.2619 81.2502C56.2619 75.4485 58.2798 69.8274 61.9696 65.3503C65.6595 60.8732 70.7916 57.8188 76.4865 56.7105C82.1814 55.6023 88.0844 56.5093 93.1839 59.276C98.2834 62.0427 102.262 66.4969 104.438 71.8752H115.638V40.1502L115.6 39.4377C115.386 35.5879 114.629 31.7877 113.35 28.1502C112.225 25.1502 110.763 22.8127 109.038 21.2752C107.5 19.9002 105.375 18.8252 101.913 18.8252C92.3375 18.8252 82.8501 22.0502 75.9126 27.4502L75.9251 27.4377ZM134.55 187.5V208.975L134.613 209.15C134.863 209.813 135.338 210.8 136.063 212.063C137.5 214.563 139.7 217.65 142.538 220.625C148.363 226.725 155.7 231.2 163.663 231.2C175.563 231.2 184.613 225.35 190.975 217.388C197.563 209.138 200.475 199.588 200.475 194.35C200.475 191.864 201.463 189.479 203.221 187.721C204.979 185.963 207.364 184.975 209.85 184.975C211.45 184.975 216.975 183.85 222.025 179.538C226.613 175.588 231.25 168.588 231.25 155.825C231.25 140.725 229.275 132.95 226.888 129.113C226.14 127.786 225.007 126.717 223.638 126.05C222.375 125.45 220.475 125 217.538 125C215.841 125 214.176 124.539 212.72 123.667C211.265 122.795 210.073 121.545 209.272 120.049C208.472 118.553 208.092 116.867 208.174 115.173C208.256 113.478 208.796 111.837 209.738 110.425C212.338 106.513 213.988 100.75 214.313 93.8002C214.581 86.7894 213.63 79.7851 211.5 73.1002C209.375 66.5002 206.438 61.6002 203.55 58.8752C200.938 56.4252 199.125 56.2877 197.425 56.8627C196.016 57.3343 194.514 57.4641 193.045 57.2414C191.576 57.0186 190.18 56.4498 188.974 55.5817C187.768 54.7136 186.785 53.5712 186.107 52.2487C185.429 50.9261 185.076 49.4614 185.075 47.9752C185.075 39.8252 181.075 32.7502 174.25 27.4377C167.338 22.0502 157.838 18.8127 148.25 18.8127C144.8 18.8127 142.688 19.9002 141.138 21.2627C139.181 23.1819 137.707 25.5381 136.838 28.1377C135.436 31.9933 134.663 36.0493 134.55 40.1502V168.75H142.5C146.976 168.75 151.268 166.972 154.432 163.808C157.597 160.643 159.375 156.351 159.375 151.875V129.438C153.997 127.262 149.543 123.284 146.776 118.184C144.009 113.085 143.102 107.182 144.21 101.487C145.319 95.7918 148.373 90.6596 152.85 86.9698C157.327 83.2799 162.948 81.2621 168.75 81.2621C174.552 81.2621 180.173 83.2799 184.65 86.9698C189.127 90.6596 192.181 95.7918 193.29 101.487C194.398 107.182 193.491 113.085 190.724 118.184C187.958 123.284 183.503 127.262 178.125 129.438V151.875C178.125 161.324 174.372 170.385 167.691 177.066C161.01 183.747 151.948 187.5 142.5 187.5H134.55ZM81.25 75.0002C79.5924 75.0002 78.0027 75.6587 76.8306 76.8308C75.6585 78.0029 75 79.5926 75 81.2502C75 82.9078 75.6585 84.4975 76.8306 85.6696C78.0027 86.8417 79.5924 87.5002 81.25 87.5002C82.9077 87.5002 84.4974 86.8417 85.6695 85.6696C86.8416 84.4975 87.5 82.9078 87.5 81.2502C87.5 79.5926 86.8416 78.0029 85.6695 76.8308C84.4974 75.6587 82.9077 75.0002 81.25 75.0002ZM75 168.75C75 170.408 75.6585 171.998 76.8306 173.17C78.0027 174.342 79.5924 175 81.25 175C82.9077 175 84.4974 174.342 85.6695 173.17C86.8416 171.998 87.5 170.408 87.5 168.75C87.5 167.093 86.8416 165.503 85.6695 164.331C84.4974 163.159 82.9077 162.5 81.25 162.5C79.5924 162.5 78.0027 163.159 76.8306 164.331C75.6585 165.503 75 167.093 75 168.75ZM162.5 106.25C162.5 107.908 163.159 109.498 164.331 110.67C165.503 111.842 167.092 112.5 168.75 112.5C170.408 112.5 171.997 111.842 173.169 110.67C174.342 109.498 175 107.908 175 106.25C175 104.593 174.342 103.003 173.169 101.831C171.997 100.659 170.408 100 168.75 100C167.092 100 165.503 100.659 164.331 101.831C163.159 103.003 162.5 104.593 162.5 106.25Z" fill="#222222"/>
</svg>
