<svg width="250" height="250" viewBox="0 0 250 250" fill="none" xmlns="http://www.w3.org/2000/svg">
<path d="M64.225 12.575C74.625 4.475 88.225 0 101.738 0C109.825 0 116.363 2.775 121.325 7.1875C122.663 8.375 123.85 9.6625 124.912 10.9875C125.975 9.6625 127.162 8.375 128.5 7.1875C133.462 2.775 140 0 148.087 0C161.6 0 175.212 4.475 185.587 12.575C193.688 18.8625 200.025 27.55 202.512 38.0375C207.762 38.9125 212.425 41.5875 216.2 45.125C222.2 50.7625 226.487 58.9125 229.175 67.3C231.912 75.8125 233.275 85.375 232.863 94.5625C232.65 99.2625 231.962 104.062 230.65 108.65L231.463 109.025C236.088 111.2 239.838 114.612 242.65 119.15C247.963 127.712 249.837 140.037 249.837 155.75C249.837 173.812 242.925 186.075 234.05 193.687C229.427 197.652 224.017 200.592 218.175 202.312C216.055 212.081 211.7 221.224 205.45 229.025C196.413 240.325 182.363 249.875 163.488 249.875C148.363 249.875 136.45 241.5 128.8 233.5C127.443 232.07 126.15 230.581 124.925 229.038C123.695 230.577 122.398 232.062 121.037 233.487C113.387 241.512 101.475 249.875 86.35 249.875C67.4625 249.875 53.4125 240.325 44.3875 229.025C38.1285 221.227 33.7641 212.083 31.6375 202.312C25.8001 200.59 20.3938 197.651 15.775 193.687C6.9 186.062 0 173.812 0 155.75C0 140.037 1.875 127.712 7.175 119.15C9.98694 114.488 14.1812 110.818 19.175 108.65C17.8907 104.056 17.1482 99.3285 16.9625 94.5625C16.55 85.375 17.9125 75.8125 20.65 67.3C23.3375 58.925 27.6125 50.7625 33.625 45.125C37.3854 41.4597 42.149 38.9931 47.3125 38.0375C49.8125 27.5375 56.1375 18.8625 64.225 12.575ZM75.75 27.3625C68.925 32.675 64.925 39.75 64.925 47.9C64.9239 49.3847 64.5701 50.8479 63.8929 52.1691C63.2157 53.4904 62.2344 54.6319 61.0297 55.4997C59.825 56.3675 58.4315 56.9368 56.9637 57.1607C55.496 57.3846 53.9961 57.2567 52.5875 56.7875C50.875 56.2125 49.0625 56.35 46.4625 58.8C43.5625 61.5125 40.625 66.425 38.5 73.025C36.3743 79.7106 35.4269 86.7149 35.7 93.725C36.0125 100.675 37.6625 106.45 40.2625 110.35C40.6927 110.996 41.0412 111.693 41.3 112.425H54.825C63.8246 112.423 72.4914 115.827 79.0838 121.954C85.6762 128.08 89.7057 136.474 90.3625 145.45C95.7473 147.599 100.218 151.552 103.009 156.633C105.8 161.715 106.739 167.609 105.664 173.306C104.589 179.003 101.567 184.149 97.1159 187.864C92.6647 191.579 87.0608 193.631 81.2633 193.669C75.4658 193.708 69.8352 191.73 65.3351 188.075C60.835 184.419 57.7452 179.314 56.5947 173.631C55.4441 167.949 56.3042 162.043 59.0278 156.925C61.7514 151.807 66.1692 147.795 71.525 145.575C70.9313 141.571 68.918 137.913 65.8524 135.27C62.7867 132.627 58.873 131.173 54.825 131.175H22.0125C20.1375 135.525 18.75 143.037 18.75 155.75C18.75 168.512 23.3875 175.513 27.9875 179.463C33.025 183.775 38.5625 184.9 40.1625 184.9C42.6489 184.9 45.0335 185.888 46.7916 187.646C48.5498 189.404 49.5375 191.789 49.5375 194.275C49.5375 199.525 52.4375 209.062 59.0375 217.312C65.3875 225.275 74.4375 231.125 86.35 231.125C94.3125 231.125 101.638 226.65 107.475 220.55C110.3 217.575 112.5 214.487 113.95 211.987C114.499 211.053 114.979 210.079 115.387 209.075L115.463 208.9V90.55H104.262C102.087 95.9283 98.1084 100.383 93.0089 103.149C87.9093 105.916 82.0063 106.823 76.3114 105.715C70.6166 104.606 65.4844 101.552 61.7946 97.0749C58.1047 92.5978 56.0869 86.9767 56.0869 81.175C56.0869 75.3733 58.1047 69.7522 61.7946 65.2751C65.4844 60.798 70.6166 57.7436 76.3114 56.6353C82.0063 55.5271 87.9093 56.4341 93.0089 59.2008C98.1084 61.9675 102.087 66.4217 104.262 71.8H115.463V40.075L115.425 39.3625C115.211 35.5127 114.454 31.7125 113.175 28.075C112.05 25.075 110.587 22.7375 108.862 21.2C107.325 19.825 105.2 18.75 101.738 18.75C92.1625 18.75 82.675 21.975 75.7375 27.375L75.75 27.3625ZM134.375 187.425V208.9L134.438 209.075C134.688 209.738 135.162 210.725 135.887 211.987C137.325 214.487 139.525 217.575 142.363 220.55C148.188 226.65 155.525 231.125 163.488 231.125C175.387 231.125 184.438 225.275 190.8 217.312C197.387 209.062 200.3 199.512 200.3 194.275C200.3 191.789 201.288 189.404 203.046 187.646C204.804 185.888 207.189 184.9 209.675 184.9C211.275 184.9 216.8 183.775 221.85 179.463C226.437 175.513 231.075 168.512 231.075 155.75C231.075 140.65 229.1 132.875 226.712 129.038C225.965 127.71 224.832 126.642 223.463 125.975C222.2 125.375 220.3 124.925 217.363 124.925C215.666 124.925 214.001 124.464 212.545 123.592C211.09 122.72 209.898 121.47 209.097 119.974C208.297 118.478 207.917 116.792 207.999 115.097C208.081 113.403 208.621 111.762 209.562 110.35C212.163 106.437 213.813 100.675 214.138 93.725C214.406 86.7142 213.455 79.7099 211.325 73.025C209.2 66.425 206.262 61.525 203.375 58.8C200.762 56.35 198.95 56.2125 197.25 56.7875C195.841 57.2591 194.339 57.3889 192.87 57.1662C191.401 56.9435 190.005 56.3746 188.799 55.5065C187.593 54.6384 186.61 53.496 185.932 52.1735C185.254 50.8509 184.9 49.3862 184.9 47.9C184.9 39.75 180.9 32.675 174.075 27.3625C167.162 21.975 157.662 18.7375 148.075 18.7375C144.625 18.7375 142.513 19.825 140.963 21.1875C139.005 23.1067 137.532 25.4629 136.662 28.0625C135.261 31.9181 134.488 35.9741 134.375 40.075V168.675H142.325C146.801 168.675 151.093 166.897 154.257 163.732C157.422 160.568 159.2 156.276 159.2 151.8V129.362C153.822 127.187 149.367 123.208 146.601 118.109C143.834 113.009 142.927 107.106 144.035 101.411C145.144 95.7166 148.198 90.5844 152.675 86.8946C157.152 83.2047 162.773 81.1869 168.575 81.1869C174.377 81.1869 179.998 83.2047 184.475 86.8946C188.952 90.5844 192.006 95.7166 193.115 101.411C194.223 107.106 193.316 113.009 190.549 118.109C187.783 123.208 183.328 127.187 177.95 129.362V151.8C177.95 161.248 174.197 170.31 167.516 176.991C160.835 183.672 151.773 187.425 142.325 187.425H134.375ZM81.075 74.925C79.4174 74.925 77.8277 75.5835 76.6556 76.7556C75.4835 77.9277 74.825 79.5174 74.825 81.175C74.825 82.8326 75.4835 84.4223 76.6556 85.5944C77.8277 86.7665 79.4174 87.425 81.075 87.425C82.7326 87.425 84.3223 86.7665 85.4944 85.5944C86.6665 84.4223 87.325 82.8326 87.325 81.175C87.325 79.5174 86.6665 77.9277 85.4944 76.7556C84.3223 75.5835 82.7326 74.925 81.075 74.925ZM74.825 168.675C74.825 170.333 75.4835 171.922 76.6556 173.094C77.8277 174.267 79.4174 174.925 81.075 174.925C82.7326 174.925 84.3223 174.267 85.4944 173.094C86.6665 171.922 87.325 170.333 87.325 168.675C87.325 167.017 86.6665 165.428 85.4944 164.256C84.3223 163.083 82.7326 162.425 81.075 162.425C79.4174 162.425 77.8277 163.083 76.6556 164.256C75.4835 165.428 74.825 167.017 74.825 168.675ZM162.325 106.175C162.325 107.833 162.983 109.422 164.156 110.594C165.328 111.767 166.917 112.425 168.575 112.425C170.233 112.425 171.822 111.767 172.994 110.594C174.167 109.422 174.825 107.833 174.825 106.175C174.825 104.517 174.167 102.928 172.994 101.756C171.822 100.583 170.233 99.925 168.575 99.925C166.917 99.925 165.328 100.583 164.156 101.756C162.983 102.928 162.325 104.517 162.325 106.175Z" fill="url(#paint0_linear_352_1087)"/>
<defs>
<linearGradient id="paint0_linear_352_1087" x1="125.127" y1="-85.8945" x2="127.242" y2="254.486" gradientUnits="userSpaceOnUse">
<stop stop-color="#222222"/>
<stop offset="0.104167" stop-color="#222222" stop-opacity="0.528355"/>
<stop offset="0.9999" stop-color="#222222" stop-opacity="0.046875"/>
<stop offset="1" stop-color="#222222" stop-opacity="0"/>
</linearGradient>
</defs>
</svg>
