<svg width="15" height="17" viewBox="0 0 15 17" fill="none" xmlns="http://www.w3.org/2000/svg">
<path d="M1.57895 14.6818V6.95455H11.0526V9.34227C11.3132 9.30364 11.5737 9.27273 11.8421 9.27273C12.1105 9.27273 12.3711 9.30364 12.6316 9.34227V6.95455C12.6316 6.54467 12.4652 6.15157 12.1691 5.86174C11.873 5.57192 11.4714 5.40909 11.0526 5.40909H10.2632V3.86364C10.2632 1.73091 8.49474 0 6.31579 0C4.13684 0 2.36842 1.73091 2.36842 3.86364V5.40909H1.57895C0.702632 5.40909 0 6.09682 0 6.95455V14.6818C0 15.0917 0.166353 15.4848 0.462463 15.7746C0.758573 16.0644 1.16018 16.2273 1.57895 16.2273H7.74474C7.46842 15.7559 7.27895 15.2382 7.17632 14.6818H1.57895ZM3.94737 3.86364C3.94737 2.58091 5.00526 1.54545 6.31579 1.54545C7.62632 1.54545 8.68421 2.58091 8.68421 3.86364V5.40909H3.94737V3.86364ZM7.89474 10.8182C7.89474 11.6759 7.19211 12.3636 6.31579 12.3636C5.89703 12.3636 5.49542 12.2008 5.19931 11.911C4.9032 11.6212 4.73684 11.2281 4.73684 10.8182C4.73684 9.96045 5.43947 9.27273 6.31579 9.27273C6.73455 9.27273 7.13616 9.43555 7.43227 9.72538C7.72838 10.0152 7.89474 10.4083 7.89474 10.8182ZM15 13.1364V14.6818H12.6316V17H11.0526V14.6818H8.68421V13.1364H11.0526V10.8182H12.6316V13.1364H15Z" fill="#222222"/>
</svg>
