<svg width="50" height="50" viewBox="0 0 50 50" fill="none" xmlns="http://www.w3.org/2000/svg">
<path d="M27.8684 24.988L49.4068 3.44132C49.7868 3.05969 49.9999 2.54311 49.9996 2.00473C49.9992 1.46635 49.7854 0.950057 49.4049 0.568931C48.6433 -0.188369 47.3019 -0.192193 46.5327 0.572756L25 22.1195L3.45967 0.567019C2.69426 -0.188369 1.3529 -0.184545 0.591319 0.570843C0.402288 0.759009 0.252647 0.982916 0.15113 1.2295C0.0496132 1.47608 -0.00174728 1.7404 4.53579e-05 2.00704C4.53579e-05 2.55015 0.210531 3.05884 0.591319 3.43558L22.1298 24.9861L0.593233 46.5386C0.213182 46.9208 0.000349687 47.4381 0.00142587 47.9769C0.00250205 48.5158 0.217399 49.0322 0.598974 49.4129C0.96828 49.7781 1.49067 49.9885 2.03028 49.9885H2.04176C2.58328 49.9866 3.10567 49.7743 3.46732 49.4052L25 27.8585L46.5404 49.411C46.9212 49.7896 47.4302 50 47.9698 50C48.2366 50.0007 48.5009 49.9488 48.7476 49.8471C48.9943 49.7454 49.2184 49.596 49.407 49.4074C49.5957 49.2188 49.7452 48.9948 49.847 48.7483C49.9488 48.5018 50.0008 48.2376 50 47.971C50 47.4298 49.7895 46.9192 49.4068 46.5424L27.8684 24.988Z" fill="#222222"/>
</svg>
