<svg width="18" height="16" viewBox="0 0 18 16" fill="none" xmlns="http://www.w3.org/2000/svg">
<path d="M1.63636 12.8C1.18636 12.8 0.801001 12.6432 0.480274 12.3296C0.159547 12.016 -0.000544065 11.6395 1.3891e-06 11.2V1.6C1.3891e-06 1.16 0.160365 0.783201 0.481092 0.469601C0.801819 0.156001 1.18691 -0.000531975 1.63636 1.35823e-06H14.7273C15.1773 1.35823e-06 15.5626 0.156801 15.8834 0.470401C16.2041 0.784001 16.3642 1.16053 16.3636 1.6V5.6H14.7273V3.2L8.61136 6.94C8.54318 6.98 8.47145 7.01013 8.39618 7.0304C8.32091 7.05067 8.24945 7.06053 8.18182 7.06C8.11364 7.06 8.04191 7.05013 7.96664 7.0304C7.89136 7.01067 7.81991 6.98053 7.75227 6.94L1.63636 3.2V11.2H9.81818V12.8H1.63636ZM8.18182 5.6L14.7273 1.6H1.63636L8.18182 5.6ZM14.7273 16C13.8273 16 13.0568 15.6867 12.4159 15.06C11.775 14.4333 11.4545 13.68 11.4545 12.8V9.2C11.4545 8.64 11.6523 8.16667 12.0477 7.78C12.4432 7.39333 12.9273 7.2 13.5 7.2C14.0727 7.2 14.5568 7.39333 14.9523 7.78C15.3477 8.16667 15.5455 8.64 15.5455 9.2V12C15.5455 12.2267 15.4669 12.4168 15.3098 12.5704C15.1527 12.724 14.9585 12.8005 14.7273 12.8C14.4955 12.8 14.301 12.7232 14.1439 12.5696C13.9868 12.416 13.9085 12.2261 13.9091 12V9.2C13.9091 9.09333 13.8682 9 13.7864 8.92C13.7045 8.84 13.6091 8.8 13.5 8.8C13.3909 8.8 13.2955 8.84 13.2136 8.92C13.1318 9 13.0909 9.09333 13.0909 9.2V12.8C13.0909 13.24 13.2513 13.6168 13.572 13.9304C13.8927 14.244 14.2778 14.4005 14.7273 14.4C15.1773 14.4 15.5626 14.2432 15.8834 13.9296C16.2041 13.616 16.3642 13.2395 16.3636 12.8V10.4C16.3636 10.1733 16.4422 9.9832 16.5993 9.8296C16.7564 9.676 16.9505 9.59947 17.1818 9.6C17.4136 9.6 17.6081 9.6768 17.7652 9.8304C17.9223 9.984 18.0005 10.1739 18 10.4V12.8C18 13.68 17.6795 14.4333 17.0386 15.06C16.3977 15.6867 15.6273 16 14.7273 16Z" fill="#222222"/>
</svg>
