<svg width="31" height="32" viewBox="0 0 31 32" fill="none" xmlns="http://www.w3.org/2000/svg">
<path d="M28.0098 8.47C28.3431 10.33 27.7531 11.3467 26.2397 11.52C25.8931 11.56 25.6431 11.7367 25.4897 12.05C24.9564 13.1367 24.1231 13.8967 22.9897 14.33C22.6897 14.45 22.4864 14.66 22.3797 14.96C22.1064 15.7933 22.1864 16.74 22.6197 17.8C22.5131 18.3 22.4831 18.78 22.5298 19.24C22.5442 19.3938 22.6083 19.5391 22.7127 19.6543C22.8172 19.7696 22.9564 19.8487 23.1097 19.88L24.7397 20.21C25.0331 20.27 25.1964 20.4467 25.2298 20.74L25.7898 24.98C25.8231 25.2533 25.9731 25.42 26.2397 25.48L27.5797 25.79C27.9797 25.8833 28.1797 26.1367 28.1797 26.55L28.1598 28.43L23.2598 28.37C22.8864 28.37 22.6531 28.19 22.5598 27.83L22.1797 26.42C22.1439 26.2817 22.0672 26.1577 21.96 26.0647C21.8527 25.9717 21.72 25.9143 21.5797 25.9L17.3498 25.46C17.1824 25.4429 17.027 25.3644 16.9128 25.2391C16.7986 25.1139 16.7335 24.9506 16.7298 24.78L16.6998 23.73C16.6967 23.5326 16.6226 23.3426 16.4906 23.1941C16.3586 23.0457 16.1775 22.9485 15.9798 22.92L15.0197 22.8C14.5064 22.7333 14.1931 22.9533 14.0797 23.46C13.7731 24.8733 13.2564 25.54 12.5298 25.46C10.3698 25.24 8.82642 26.0033 7.89975 27.75C7.74642 28.0367 7.51641 28.2233 7.20975 28.31C5.60308 28.7633 4.15307 28.6033 2.85974 27.83C2.81307 27.4433 2.83976 27.0633 2.93976 26.69C3.02642 26.3367 3.22309 26.0567 3.52975 25.85C5.25642 24.69 5.94974 23.01 5.60974 20.81C5.55641 20.4633 5.70642 20.2633 6.05975 20.21L7.95975 19.95C8.29308 19.9033 8.48309 19.7167 8.52975 19.39C8.61642 18.8233 8.52643 18.25 8.25977 17.67C8.9531 16.5633 8.99975 15.5367 8.39975 14.59C8.19975 14.2767 7.9131 14.12 7.53976 14.12H6.72977C6.55078 14.1211 6.37754 14.0554 6.24295 13.9356C6.10837 13.8158 6.02181 13.6501 5.99976 13.47C5.87976 12.43 5.47643 11.7267 4.78976 11.36C4.21643 11.42 3.77977 11.36 3.47977 11.18C2.82977 10.78 3.02974 9.34 2.29974 8.5L10.7997 8.48999C11.2331 8.48332 11.4498 8.26332 11.4498 7.82999L11.4597 6.25C11.4664 5.89667 11.6431 5.71 11.9897 5.69L13.8198 5.56C13.8832 5.55544 13.9436 5.5315 13.993 5.49142C14.0423 5.45135 14.0781 5.39709 14.0956 5.33597C14.1131 5.27485 14.1113 5.20981 14.0906 5.14972C14.0699 5.08962 14.0312 5.03736 13.9798 5C13.8464 4.90667 13.8264 4.77665 13.9198 4.60999C14.0598 4.34332 14.2531 4.30001 14.4998 4.48001C14.5664 4.53334 14.6431 4.57665 14.7298 4.60999C14.834 4.65051 14.9463 4.66653 15.0577 4.6568C15.1692 4.64707 15.2769 4.61185 15.3726 4.55386C15.4682 4.49588 15.5493 4.41669 15.6095 4.32239C15.6697 4.22808 15.7074 4.12121 15.7198 4.01001C15.7598 3.65001 15.5964 3.40332 15.2298 3.26999C14.8498 3.13666 14.5364 3.23333 14.2898 3.56C14.2231 3.64666 14.1564 3.73334 14.0898 3.82001C14.075 3.84291 14.053 3.86013 14.0272 3.86884C14.0014 3.87754 13.9734 3.87722 13.9478 3.86792C13.9222 3.85861 13.9005 3.84087 13.8864 3.81763C13.8722 3.79438 13.8663 3.767 13.8698 3.73999V0.559998C13.8724 0.410564 13.9336 0.268134 14.0402 0.163391C14.1468 0.0586486 14.2903 -2.29954e-05 14.4398 6.75936e-09L16.2697 0.0100098C16.6164 0.0100098 16.7831 0.179989 16.7697 0.519989L16.5598 5.19C16.5398 5.58334 16.7231 5.75 17.1097 5.69C17.7964 5.59667 18.4798 5.62001 19.1598 5.76001C19.4598 5.82001 19.6164 6.00333 19.6298 6.31L19.7097 7.98999C19.7231 8.32332 19.8964 8.48999 20.2298 8.48999L28.0098 8.47ZM15.4398 17.55C16.3864 16.9167 16.7531 16.0133 16.5398 14.84C16.4731 14.4867 16.6164 14.2767 16.9698 14.21L21.0398 13.47C22.2998 13.2367 22.3131 12.95 21.0797 12.61L17.2097 11.55C16.8764 11.4567 16.6864 11.24 16.6398 10.9L16.1097 7.10999C16.1085 7.09321 16.1025 7.07716 16.0926 7.0636C16.0826 7.05004 16.0691 7.03954 16.0534 7.03329C16.0378 7.02705 16.0208 7.0253 16.0042 7.02826C15.9877 7.03121 15.9722 7.03873 15.9597 7.04999C15.8731 7.11665 15.7764 7.18999 15.6698 7.26999C15.6406 7.29114 15.6061 7.30408 15.5701 7.30728C15.5341 7.31048 15.4983 7.30381 15.4668 7.28806C15.4352 7.2723 15.4094 7.24809 15.3922 7.21832C15.375 7.18855 15.3672 7.15444 15.3698 7.12L15.3898 5.14001C15.3964 5.04001 15.3464 4.98668 15.2397 4.98001L14.8698 4.97C14.6764 4.96333 14.5731 5.06001 14.5598 5.26001L14.0797 10.88C14.0531 11.2 13.8864 11.4133 13.5797 11.52L9.74976 12.81C9.10976 13.0233 9.11641 13.2067 9.76974 13.36L13.4798 14.2C13.6144 14.2287 13.7372 14.2976 13.8318 14.3976C13.9264 14.4976 13.9885 14.624 14.0098 14.76L14.7397 19.28C14.7466 19.3255 14.7664 19.3681 14.7968 19.4027C14.8272 19.4373 14.8669 19.4624 14.9112 19.4751C14.9554 19.4877 15.0024 19.4874 15.0465 19.4741C15.0906 19.4608 15.1299 19.435 15.1598 19.4C15.3998 19.12 15.4264 18.8433 15.2397 18.57C14.9664 18.1633 15.0331 17.8233 15.4398 17.55ZM17.5698 22.22C17.5639 22.2588 17.5663 22.2984 17.5767 22.3361C17.5871 22.3737 17.6053 22.4085 17.6301 22.438C17.6548 22.4676 17.6856 22.4911 17.72 22.507C17.7545 22.5228 17.7919 22.5307 17.8297 22.53C18.2697 22.5433 18.4731 22.2833 18.4398 21.75C18.4264 21.49 18.3497 21.26 18.2097 21.06C17.9364 20.6867 17.7697 20.7267 17.7097 21.18L17.5698 22.22Z" fill="#FCC32C"/>
<path d="M2.29974 8.5C3.02974 9.34 2.82977 10.78 3.47977 11.18C3.77977 11.36 4.21643 11.42 4.78976 11.36C3.9831 11.3933 3.30643 11.58 2.75977 11.92C2.02643 11.6933 1.31308 11.5867 0.619751 11.6C0.540105 11.6013 0.460989 11.587 0.387024 11.558C0.313059 11.5289 0.245715 11.4857 0.188934 11.4308C0.132153 11.3759 0.0870707 11.3104 0.056305 11.2381C0.0255393 11.1659 0.00973096 11.0883 0.00976568 11.01V9C0.00976568 8.64667 0.186431 8.47335 0.539764 8.48001L2.29974 8.5Z" fill="#1D284B"/>
<path d="M28.0098 8.47L30.2298 8.48999C30.7164 8.48999 30.9564 8.73333 30.9498 9.22L30.9097 10.87C30.9076 11.026 30.8466 11.1754 30.7391 11.2885C30.6316 11.4016 30.4854 11.47 30.3297 11.48L28.9597 11.56C28.4997 11.5933 28.2597 11.8367 28.2397 12.29L28.1698 13.79C28.1564 14.0833 28.0031 14.25 27.7097 14.29L25.9798 14.5C25.6664 14.54 25.5031 14.7167 25.4897 15.03L25.4498 16.76C25.4364 17.1 25.2598 17.2833 24.9198 17.31C23.9664 17.3767 23.1997 17.54 22.6197 17.8C22.1864 16.74 22.1064 15.7933 22.3797 14.96C22.4864 14.66 22.6897 14.45 22.9897 14.33C24.1231 13.8967 24.9564 13.1367 25.4897 12.05C25.6431 11.7367 25.8931 11.56 26.2397 11.52C27.7531 11.3467 28.3431 10.33 28.0098 8.47Z" fill="#2F1E36"/>
<path d="M4.78976 11.36C5.47643 11.7267 5.87976 12.43 5.99976 13.47C6.02181 13.6501 6.10837 13.8158 6.24295 13.9356C6.37754 14.0554 6.55078 14.1211 6.72977 14.12H7.53976C7.9131 14.12 8.19975 14.2767 8.39975 14.59C8.99975 15.5367 8.9531 16.5633 8.25977 17.67L6.16977 17.44C5.99374 17.4206 5.83073 17.3379 5.71115 17.2073C5.59157 17.0767 5.52353 16.9071 5.51974 16.73L5.49976 15.26C5.49309 14.7733 5.24643 14.5267 4.75977 14.52L3.44977 14.5C3.00977 14.4933 2.78642 14.27 2.77975 13.83L2.75977 11.92C3.30643 11.58 3.9831 11.3933 4.78976 11.36Z" fill="#2F1E36"/>
<path d="M28.1598 28.43L28.2798 30.79C28.3064 31.29 28.0698 31.54 27.5698 31.54L23.0898 31.51C22.6631 31.51 22.4298 31.2967 22.3898 30.87L22.2398 29.35C22.2064 28.9633 21.9931 28.77 21.5998 28.77L17.1198 28.74C16.7131 28.7333 16.5164 28.5267 16.5298 28.12L16.5698 26.52C16.5744 26.3513 16.5179 26.187 16.411 26.058C16.3041 25.929 16.1543 25.8443 15.9898 25.82C15.2698 25.7067 14.7331 25.75 14.3798 25.95C14.1464 26.0767 13.9998 26.49 13.9398 27.19C13.9131 27.4833 13.8498 27.8 13.7498 28.14C13.6564 28.46 13.4464 28.63 13.1198 28.65C11.9598 28.71 10.3098 28.47 9.31977 29.07C8.6731 29.4633 8.38976 29.9167 8.46976 30.43C8.55643 30.99 8.31309 31.27 7.73975 31.27L3.52976 31.28C2.97643 31.28 2.71309 31.0033 2.73975 30.45L2.85974 27.83C4.15307 28.6033 5.60308 28.7633 7.20975 28.31C7.51641 28.2233 7.74642 28.0367 7.89975 27.75C8.82642 26.0033 10.3698 25.24 12.5298 25.46C13.2564 25.54 13.7731 24.8733 14.0797 23.46C14.1931 22.9533 14.5064 22.7333 15.0197 22.8L15.9798 22.92C16.1775 22.9485 16.3586 23.0457 16.4906 23.1941C16.6226 23.3426 16.6967 23.5326 16.6998 23.73L16.7298 24.78C16.7335 24.9506 16.7986 25.1139 16.9128 25.2391C17.027 25.3644 17.1824 25.4429 17.3498 25.46L21.5797 25.9C21.72 25.9143 21.8527 25.9717 21.96 26.0647C22.0672 26.1577 22.1439 26.2817 22.1797 26.42L22.5598 27.83C22.6531 28.19 22.8864 28.37 23.2598 28.37L28.1598 28.43Z" fill="#2F1E36"/>
</svg>
