<svg width="56" height="50" viewBox="0 0 56 50" fill="none" xmlns="http://www.w3.org/2000/svg">
<path fill-rule="evenodd" clip-rule="evenodd" d="M36.6922 20.6922C38.9654 18.419 40.2424 15.3359 40.2424 12.1212C40.2424 8.90649 38.9654 5.82336 36.6922 3.55023C34.419 1.27704 31.336 0 28.1212 0C24.9065 0 21.8234 1.27704 19.5502 3.55023C17.2771 5.82336 16 8.90649 16 12.1212C16 15.3359 17.2771 18.419 19.5502 20.6922C21.8234 22.9654 24.9065 24.2424 28.1212 24.2424C31.336 24.2424 34.419 22.9654 36.6922 20.6922ZM32.4067 16.4067C33.5433 15.2701 34.1818 13.7286 34.1818 12.1212C34.1818 10.5139 33.5433 8.97229 32.4067 7.83569C31.2701 6.69916 29.7286 6.06061 28.1212 6.06061C26.5138 6.06061 24.9723 6.69916 23.8357 7.83569C22.6991 8.97229 22.0606 10.5139 22.0606 12.1212C22.0606 13.7286 22.6991 15.2701 23.8357 16.4067C24.9723 17.5433 26.5138 18.1818 28.1212 18.1818C29.7286 18.1818 31.2701 17.5433 32.4067 16.4067Z" fill="#222222"/>
<path d="M2.49998 48.0004C4.80799 49.4957 4.80674 49.4976 4.80674 49.4976L4.81212 49.4894L4.82653 49.4677L4.84817 49.4353C4.88276 49.3838 4.93831 49.3021 5.01431 49.1932C5.16637 48.9753 5.39981 48.6495 5.71043 48.2407C6.33262 47.4218 7.25898 46.2769 8.45547 45.0024C10.8671 42.4338 14.2825 39.4394 18.4243 37.4698C22.5238 35.5204 27.2852 34.5922 32.5751 36.0151C37.9003 37.4474 44.0999 41.3538 50.8603 49.7275L55.1397 46.2725C47.8912 37.2944 40.7739 32.5249 34.0036 30.7039C27.1981 28.8733 21.0855 30.1142 16.0623 32.5029C11.0814 34.8714 7.1251 38.384 4.44573 41.2379C3.09674 42.6747 2.04778 43.97 1.33103 44.9134C0.972183 45.3857 0.695248 45.7716 0.504303 46.0452C0.408794 46.182 0.334682 46.2909 0.282486 46.3686C0.256382 46.4075 0.235744 46.4385 0.220642 46.4615L0.202137 46.4896L0.196007 46.499L0.193726 46.5026C0.193726 46.5026 0.191967 46.5052 2.49998 48.0004Z" fill="#222222"/>
</svg>
