<svg width="72" height="63" viewBox="0 0 72 63" fill="none" xmlns="http://www.w3.org/2000/svg">
<path d="M65.625 34.3789L3.12503 34.3789C2.29623 34.3789 1.50137 34.0496 0.915314 33.4636C0.329262 32.8775 3.05176e-05 32.0827 3.05176e-05 31.2539C3.05176e-05 30.4251 0.329262 29.6302 0.915314 29.0442C1.50137 28.4581 2.29623 28.1289 3.12503 28.1289L65.625 28.1289C66.4538 28.1289 67.2487 28.4581 67.8347 29.0442C68.4208 29.6302 68.75 30.4251 68.75 31.2539C68.75 32.0827 68.4208 32.8775 67.8347 33.4636C67.2487 34.0496 66.4538 34.3789 65.625 34.3789Z" fill="#222222"/>
<path d="M64.3313 31.2539L38.4125 5.34137C37.8257 4.75457 37.4961 3.95872 37.4961 3.12887C37.4961 2.29902 37.8257 1.50316 38.4125 0.916367C38.9993 0.329575 39.7952 -8.01086e-05 40.625 -8.01086e-05C41.4549 -8.01086e-05 42.2507 0.329575 42.8375 0.916367L70.9625 29.0414C71.2535 29.3317 71.4844 29.6765 71.642 30.0562C71.7995 30.4358 71.8806 30.8428 71.8806 31.2539C71.8806 31.6649 71.7995 32.0719 71.642 32.4516C71.4844 32.8312 71.2535 33.1761 70.9625 33.4664L42.8375 61.5914C42.2507 62.1782 41.4549 62.5078 40.625 62.5078C39.7952 62.5078 38.9993 62.1782 38.4125 61.5914C37.8257 61.0046 37.4961 60.2087 37.4961 59.3789C37.4961 58.549 37.8257 57.7532 38.4125 57.1664L64.3313 31.2539Z" fill="#222222"/>
</svg>
