<svg width="30" height="30" viewBox="0 0 30 30" fill="none" xmlns="http://www.w3.org/2000/svg">
<path d="M15 5.45455C14.6136 5.45455 14.2895 5.32364 14.0277 5.06182C13.7659 4.8 13.6355 4.47637 13.6364 4.09091V1.36364C13.6364 0.977277 13.7673 0.653186 14.0291 0.391368C14.2909 0.12955 14.6145 -0.000904372 15 4.71847e-06C15.3864 4.71847e-06 15.7105 0.130914 15.9723 0.392732C16.2341 0.65455 16.3645 0.978186 16.3636 1.36364V4.09091C16.3636 4.47728 16.2327 4.80137 15.9709 5.06318C15.7091 5.325 15.3855 5.45546 15 5.45455ZM21.75 8.25C21.5 8 21.375 7.68773 21.375 7.31318C21.375 6.93864 21.5 6.61455 21.75 6.34091L23.6591 4.39773C23.9318 4.125 24.2555 3.98864 24.63 3.98864C25.0045 3.98864 25.3286 4.125 25.6023 4.39773C25.8523 4.64773 25.9773 4.96591 25.9773 5.35228C25.9773 5.73864 25.8523 6.05682 25.6023 6.30682L23.6591 8.25C23.4091 8.5 23.0909 8.625 22.7045 8.625C22.3182 8.625 22 8.5 21.75 8.25ZM25.9091 16.3636C25.5227 16.3636 25.1986 16.2327 24.9368 15.9709C24.675 15.7091 24.5445 15.3855 24.5455 15C24.5455 14.6136 24.6764 14.2895 24.9382 14.0277C25.2 13.7659 25.5236 13.6355 25.9091 13.6364H28.6364C29.0227 13.6364 29.3468 13.7673 29.6086 14.0291C29.8704 14.2909 30.0009 14.6145 30 15C30 15.3864 29.8691 15.7105 29.6073 15.9723C29.3454 16.2341 29.0218 16.3645 28.6364 16.3636H25.9091ZM15 30C14.6136 30 14.2895 29.8691 14.0277 29.6073C13.7659 29.3454 13.6355 29.0218 13.6364 28.6364V25.9091C13.6364 25.5227 13.7673 25.1986 14.0291 24.9368C14.2909 24.675 14.6145 24.5445 15 24.5455C15.3864 24.5455 15.7105 24.6764 15.9723 24.9382C16.2341 25.2 16.3645 25.5236 16.3636 25.9091V28.6364C16.3636 29.0227 16.2327 29.3468 15.9709 29.6086C15.7091 29.8704 15.3855 30.0009 15 30ZM6.34091 8.25L4.39773 6.34091C4.125 6.06818 3.98864 5.73864 3.98864 5.35228C3.98864 4.96591 4.125 4.64773 4.39773 4.39773C4.64773 4.14773 4.96591 4.02273 5.35228 4.02273C5.73864 4.02273 6.05682 4.14773 6.30682 4.39773L8.25 6.34091C8.5 6.59091 8.625 6.90909 8.625 7.29546C8.625 7.68182 8.5 8 8.25 8.25C7.97727 8.5 7.65909 8.625 7.29546 8.625C6.93182 8.625 6.61364 8.5 6.34091 8.25ZM23.6591 25.6023L21.75 23.6591C21.5 23.3864 21.375 23.0623 21.375 22.6868C21.375 22.3114 21.5 21.9991 21.75 21.75C22 21.5 22.3127 21.375 22.6882 21.375C23.0636 21.375 23.3873 21.5 23.6591 21.75L25.6023 23.6591C25.875 23.9091 26.0059 24.2273 25.995 24.6136C25.9841 25 25.8532 25.3295 25.6023 25.6023C25.3295 25.875 25 26.0114 24.6136 26.0114C24.2273 26.0114 23.9091 25.875 23.6591 25.6023ZM1.36364 16.3636C0.977277 16.3636 0.653186 16.2327 0.391368 15.9709C0.12955 15.7091 -0.000904372 15.3855 4.71847e-06 15C4.71847e-06 14.6136 0.130914 14.2895 0.392732 14.0277C0.65455 13.7659 0.978186 13.6355 1.36364 13.6364H4.09091C4.47728 13.6364 4.80137 13.7673 5.06318 14.0291C5.325 14.2909 5.45546 14.6145 5.45455 15C5.45455 15.3864 5.32364 15.7105 5.06182 15.9723C4.8 16.2341 4.47637 16.3645 4.09091 16.3636H1.36364ZM4.39773 25.6023C4.14773 25.3523 4.02273 25.0341 4.02273 24.6477C4.02273 24.2614 4.14773 23.9432 4.39773 23.6932L6.34091 21.75C6.59091 21.5 6.90318 21.375 7.27773 21.375C7.65227 21.375 7.97637 21.5 8.25 21.75C8.52273 22.0227 8.65909 22.3468 8.65909 22.7223C8.65909 23.0977 8.52273 23.4214 8.25 23.6932L6.34091 25.6023C6.06818 25.875 5.73864 26.0114 5.35228 26.0114C4.96591 26.0114 4.64773 25.875 4.39773 25.6023ZM15 23.1818C12.7273 23.1818 10.7955 22.3864 9.20455 20.7955C7.61364 19.2045 6.81818 17.2727 6.81818 15C6.81818 12.7273 7.61364 10.7955 9.20455 9.20455C10.7955 7.61364 12.7273 6.81818 15 6.81818C17.2727 6.81818 19.2045 7.61364 20.7955 9.20455C22.3864 10.7955 23.1818 12.7273 23.1818 15C23.1818 17.2727 22.3864 19.2045 20.7955 20.7955C19.2045 22.3864 17.2727 23.1818 15 23.1818Z" fill="#222222"/>
</svg>
